<?xml version="1.0" encoding="UTF-8" ?>
<svg version="1.1" viewBox="0 0 17 17" xmlns="http://www.w3.org/2000/svg" shape-rendering="crispEdges">
<rect class="pulsar" x="5" y="1" width="1" height="1" fill="#000000" />
<rect class="pulsar" x="11" y="1" width="1" height="1" fill="#000000" />
<rect class="pulsar" x="5" y="2" width="1" height="1" fill="#000000" />
<rect class="pulsar" x="11" y="2" width="1" height="1" fill="#000000" />
<rect class="pulsar" x="5" y="3" width="1" height="1" fill="#000000" />
<rect class="pulsar" x="6" y="3" width="1" height="1" fill="#000000" />
<rect class="pulsar" x="10" y="3" width="1" height="1" fill="#000000" />
<rect class="pulsar" x="11" y="3" width="1" height="1" fill="#000000" />
<rect class="pulsar" x="1" y="5" width="1" height="1" fill="#000000" />
<rect class="pulsar" x="2" y="5" width="1" height="1" fill="#000000" />
<rect class="pulsar" x="3" y="5" width="1" height="1" fill="#000000" />
<rect class="pulsar" x="6" y="5" width="1" height="1" fill="#000000" />
<rect class="pulsar" x="7" y="5" width="1" height="1" fill="#000000" />
<rect class="pulsar" x="9" y="5" width="1" height="1" fill="#000000" />
<rect class="pulsar" x="10" y="5" width="1" height="1" fill="#000000" />
<rect class="pulsar" x="13" y="5" width="1" height="1" fill="#000000" />
<rect class="pulsar" x="14" y="5" width="1" height="1" fill="#000000" />
<rect class="pulsar" x="15" y="5" width="1" height="1" fill="#000000" />
<rect class="pulsar" x="3" y="6" width="1" height="1" fill="#000000" />
<rect class="pulsar" x="5" y="6" width="1" height="1" fill="#000000" />
<rect class="pulsar" x="7" y="6" width="1" height="1" fill="#000000" />
<rect class="pulsar" x="9" y="6" width="1" height="1" fill="#000000" />
<rect class="pulsar" x="11" y="6" width="1" height="1" fill="#000000" />
<rect class="pulsar" x="13" y="6" width="1" height="1" fill="#000000" />
<rect class="pulsar" x="5" y="7" width="1" height="1" fill="#000000" />
<rect class="pulsar" x="6" y="7" width="1" height="1" fill="#000000" />
<rect class="pulsar" x="10" y="7" width="1" height="1" fill="#000000" />
<rect class="pulsar" x="11" y="7" width="1" height="1" fill="#000000" />
<rect class="pulsar" x="3" y="9" width="1" height="1" fill="#000000" />
<rect class="pulsar" x="5" y="9" width="1" height="1" fill="#000000" />
<rect class="pulsar" x="6" y="9" width="1" height="1" fill="#000000" />
<rect class="pulsar" x="10" y="9" width="1" height="1" fill="#000000" />
<rect class="pulsar" x="11" y="9" width="1" height="1" fill="#000000" />
<rect class="pulsar" x="13" y="9" width="1" height="1" fill="#000000" />
<rect class="pulsar" x="1" y="10" width="1" height="1" fill="#000000" />
<rect class="pulsar" x="2" y="10" width="1" height="1" fill="#000000" />
<rect class="pulsar" x="3" y="10" width="1" height="1" fill="#000000" />
<rect class="pulsar" x="5" y="10" width="1" height="1" fill="#000000" />
<rect class="pulsar" x="7" y="10" width="1" height="1" fill="#000000" />
<rect class="pulsar" x="9" y="10" width="1" height="1" fill="#000000" />
<rect class="pulsar" x="11" y="10" width="1" height="1" fill="#000000" />
<rect class="pulsar" x="13" y="10" width="1" height="1" fill="#000000" />
<rect class="pulsar" x="14" y="10" width="1" height="1" fill="#000000" />
<rect class="pulsar" x="15" y="10" width="1" height="1" fill="#000000" />
<rect class="pulsar" x="6" y="11" width="1" height="1" fill="#000000" />
<rect class="pulsar" x="7" y="11" width="1" height="1" fill="#000000" />
<rect class="pulsar" x="9" y="11" width="1" height="1" fill="#000000" />
<rect class="pulsar" x="10" y="11" width="1" height="1" fill="#000000" />
<rect class="pulsar" x="5" y="13" width="1" height="1" fill="#000000" />
<rect class="pulsar" x="6" y="13" width="1" height="1" fill="#000000" />
<rect class="pulsar" x="10" y="13" width="1" height="1" fill="#000000" />
<rect class="pulsar" x="11" y="13" width="1" height="1" fill="#000000" />
<rect class="pulsar" x="5" y="14" width="1" height="1" fill="#000000" />
<rect class="pulsar" x="11" y="14" width="1" height="1" fill="#000000" />
<rect class="pulsar" x="5" y="15" width="1" height="1" fill="#000000" />
<rect class="pulsar" x="11" y="15" width="1" height="1" fill="#000000" />
</svg>
